<svg width="1920" height="1080" viewBox="0 0 1920 1080" fill="none" xmlns="http://www.w3.org/2000/svg">
<mask id="mask0_224_1138" style="mask-type:alpha" maskUnits="userSpaceOnUse" x="0" y="0" width="1920" height="1080">
<rect width="1920" height="1080" fill="#0A263A"/>
</mask>
<g mask="url(#mask0_224_1138)">
<mask id="mask1_224_1138" style="mask-type:alpha" maskUnits="userSpaceOnUse" x="0" y="0" width="1920" height="1080">
<rect width="1920" height="1080" fill="#0A263A"/>
</mask>
<g mask="url(#mask1_224_1138)">
<path d="M2362 -195H1002.81C948.675 -195 917.123 -133.8 948.366 -89.6L1062.51 71.7455C1124.99 160.455 1226.76 213 1335.34 213H2182.9L2362 -195Z" fill="#E8EAE5"/>
<path d="M1279.48 378.164L1418.9 575.055C1481.34 663.455 1583.04 716 1691.54 716H1962.02L2141 308H1315.65C1279.48 308 1258.46 348.8 1279.17 378.164H1279.48Z" fill="#E8EAE5"/>
<path d="M1621.27 861.611L1792.02 1103H1921V809H1648.49C1621.27 809 1605.5 839.638 1621.27 861.611Z" fill="#E8EAE5"/>
</g>
</g>
</svg>
