<svg width="28" height="28" viewBox="0 0 28 28" fill="none" xmlns="http://www.w3.org/2000/svg">
<path fill-rule="evenodd" clip-rule="evenodd" d="M22.8736 22.8731H19.1384V17.0239C19.1384 15.6309 19.1146 13.8361 17.1966 13.8361C15.2506 13.8361 14.9552 15.3565 14.9552 16.9259V22.8731H11.22V10.8471H14.8026V12.4907H14.8544C15.3528 11.5457 16.5722 10.5489 18.3908 10.5489C22.175 10.5489 22.875 13.0381 22.875 16.2777V22.8731H22.8736ZM7.00739 9.2049C6.72279 9.20518 6.44092 9.14939 6.17788 9.04074C5.91484 8.93208 5.67577 8.77268 5.47433 8.57163C5.2729 8.37058 5.11303 8.13183 5.00386 7.86899C4.8947 7.60616 4.83837 7.3244 4.83809 7.0398C4.83781 6.7552 4.8936 6.47333 5.00226 6.21029C5.11091 5.94725 5.27032 5.70818 5.47136 5.50675C5.67241 5.30531 5.91117 5.14544 6.174 5.03627C6.43683 4.92711 6.71859 4.87078 7.00319 4.8705C7.57797 4.86995 8.12943 5.09774 8.53625 5.50378C8.94307 5.90981 9.17193 6.46083 9.17249 7.0356C9.17305 7.61038 8.94525 8.16184 8.53922 8.56866C8.13318 8.97548 7.58217 9.20435 7.00739 9.2049ZM5.13559 22.8731H8.87639V10.8471H5.13419V22.8731H5.13559ZM24.7356 1.3999H3.25959C2.23339 1.3999 1.40039 2.2133 1.40039 3.2171V24.7813C1.40039 25.7851 2.23339 26.5999 3.25959 26.5999H24.7356C25.7632 26.5999 26.6004 25.7851 26.6004 24.7813V3.2171C26.6004 2.2133 25.7632 1.3999 24.7356 1.3999Z" fill="#CC3022"/>
</svg>
