<svg width="1920" height="1505" viewBox="0 0 1920 1505" fill="none" xmlns="http://www.w3.org/2000/svg">
<path d="M1092.15 348.627L1587.45 1449H1326.57L1191.92 1150.51L1191.65 1149.92H1191H733.995H733.349L733.083 1150.51L598.432 1449H337.544L831.073 348.626L961.7 57.4432L1091.69 347.217H1091.51L1092.15 348.627ZM831.027 930.685L830.391 932.096H831.938H1091.46H1093.01L1092.37 930.685L962.612 642.799L961.7 640.777L960.788 642.799L831.027 930.685Z" stroke="#CC3022" stroke-width="2"/>
<path d="M-57.6301 355H721.471L619.482 588H133.352C71.3192 588 13.1754 557.893 -22.5237 507.065L-22.5249 507.064L-88.0806 414.132C-88.0806 414.132 -88.0807 414.132 -88.0808 414.132C-105.562 389.329 -87.9007 355 -57.6301 355Z" stroke="#CC3022" stroke-width="2"/>
<path d="M101.701 682.835L101.402 682.413H101.231C90.2657 666.196 101.869 644 121.712 644H595.469L493.278 877H338.173C276.014 877 217.754 846.892 181.984 796.241L181.983 796.24L101.701 682.835Z" stroke="#CC3022" stroke-width="2"/>
<path d="M298.425 960.664L298.425 960.664L298.421 960.659C289.828 948.697 298.415 932 313.265 932H468.469L395.608 1097.98L298.425 960.664Z" stroke="#CC3022" stroke-width="2"/>
<path d="M1943.52 507.064L1943.52 507.065C1907.82 557.893 1849.68 588 1787.65 588H1301.52L1199.53 355H1978.63C2008.9 355 2026.56 389.329 2009.08 414.132L1943.52 507.064Z" stroke="#CC3022" stroke-width="2"/>
<path d="M1428.55 877L1326.53 644H1799.33C1819.31 644 1830.93 666.584 1819.48 682.837L1739.33 796.241L1739.33 796.242C1703.62 846.892 1645.46 877 1583.4 877H1428.55Z" stroke="#CC3022" stroke-width="2"/>
<path d="M1622.58 960.659L1622.57 960.664L1525.39 1097.98L1452.53 932H1607.74C1622.59 932 1631.17 948.697 1622.58 960.659Z" stroke="#CC3022" stroke-width="2"/>
<rect x="-178" y="1" width="2277" height="1503" stroke="#CC3022" stroke-width="2"/>
</svg>
