<svg width="280" height="40" viewBox="0 0 280 40" fill="none" xmlns="http://www.w3.org/2000/svg">
<path d="M30.4385 16.8662V16.8153" stroke="#E8EAE5" stroke-width="0.1" stroke-miterlimit="10"/>
<path d="M34.2819 8.40764L30.4899 0L26.6979 8.40764L12.4521 40H20.0362L23.9256 31.4242H37.1003L40.9897 40H48.5737L34.2768 8.40764H34.2819ZM26.7491 25.121L30.4899 16.8662L34.2307 25.121H26.7491Z" fill="#E8EAE5"/>
<path d="M30.4385 16.8662V16.8153" stroke="#E8EAE5" stroke-width="0.1" stroke-miterlimit="10"/>
<path d="M23.6232 8.5758H1.10674C0.209976 8.5758 -0.312709 9.58471 0.204851 10.3134L2.09574 12.9732C3.13086 14.4357 4.81677 15.3019 6.61542 15.3019H20.6562L23.6232 8.5758Z" fill="#E8EAE5"/>
<path d="M5.68748 18.0229L7.99857 21.2688C9.03369 22.7261 10.7196 23.5924 12.5183 23.5924H17.0021L19.9691 16.8662H6.28703C5.68748 16.8662 5.33903 17.5389 5.68236 18.0229H5.68748Z" fill="#E8EAE5"/>
<path d="M11.3559 25.9873L14.1845 29.9618L16.3214 25.121H11.8068C11.3559 25.121 11.0946 25.6255 11.3559 25.9873Z" fill="#E8EAE5"/>
<path d="M37.3049 8.5758H59.8162C60.713 8.5758 61.2357 9.58471 60.7181 10.3134L58.8272 12.9732C57.7921 14.4357 56.1062 15.3019 54.3076 15.3019H40.2668L37.2998 8.5758H37.3049Z" fill="#E8EAE5"/>
<path d="M55.2406 18.0229L52.9295 21.2688C51.8944 22.7261 50.2085 23.5924 48.4098 23.5924H43.926L40.959 16.8662H54.6359C55.2354 16.8662 55.5839 17.5389 55.2406 18.0229Z" fill="#E8EAE5"/>
<path d="M49.568 25.9873L46.7394 29.9618L44.6025 25.121H49.1171C49.568 25.121 49.8294 25.6255 49.568 25.9873Z" fill="#E8EAE5"/>
<path d="M87.5294 31.4242L85.7461 26.3745H76.5581L74.7493 31.4242H69.8965L78.6335 8.5758H83.8091L92.5462 31.4242H87.5294ZM77.8546 22.6701H84.424L81.1547 13.4369L77.8546 22.6701Z" fill="#E8EAE5"/>
<path d="M95.2061 31.4242V8.5758H99.9922V31.4242H95.2061Z" fill="#E8EAE5"/>
<path d="M105.623 31.4242V8.5758H115.688C120.448 8.5758 124.004 11.0879 124.004 15.7503V16.1376C124.004 19.6484 122.062 21.9006 119.085 22.8331L124.778 31.4242H119.439L114.227 23.3172H110.374V31.4242H105.618H105.623ZM110.379 19.3885H115.201C117.466 19.3885 119.085 18.3898 119.085 16.1376V15.7503C119.085 13.4675 117.466 12.4994 115.201 12.4994H110.379V19.3834V19.3885Z" fill="#E8EAE5"/>
<path d="M140.557 31.4242L134.571 8.5758H139.521L143.436 25.5338L147.838 8.5758H152.819L157.093 25.6306L161.074 8.5758H165.799L159.717 31.4242H154.444L150.236 14.9809L146.029 31.4242H140.562H140.557Z" fill="#E8EAE5"/>
<path d="M169.463 31.4242V8.5758H174.285V17.7121H184.252V8.5758H189.074V31.4242H184.252V21.6459H174.285V31.4242H169.463Z" fill="#E8EAE5"/>
<path d="M194.198 31.4242V8.5758H198.984V31.4242H194.198Z" fill="#E8EAE5"/>
<path d="M203.739 24.4433H208.464C208.884 26.8892 210.76 28.0459 213.64 28.0459C216.002 28.0459 217.944 27.0828 217.944 25.3146V25.0242C217.944 23.4446 216.55 22.5783 212.246 21.7732C206.681 20.7439 204.513 18.7771 204.513 15.2051V14.8841C204.513 10.8943 208.044 8.16306 213.183 8.16306C218.323 8.16306 221.792 10.5427 222.341 15.0166H217.616C217.262 12.9885 215.674 11.893 213.086 11.893C210.498 11.893 209.304 13.0497 209.304 14.6599V14.8535C209.304 16.2701 209.95 17.1057 214.516 17.8446C219.983 18.7771 222.735 20.7439 222.735 24.5401V24.8611C222.735 29.0752 218.984 31.842 213.547 31.842C207.69 31.842 204.195 29.0752 203.744 24.4382L203.739 24.4433Z" fill="#E8EAE5"/>
<path d="M231.339 31.4242V12.535H224.831V8.5758H242.664V12.535H236.161V31.4242H231.339Z" fill="#E8EAE5"/>
<path d="M246.046 31.4242V8.5758H250.832V27.4344H259.923V31.4242H246.041H246.046Z" fill="#E8EAE5"/>
<path d="M263.275 31.4242V8.5758H279.744V12.4688H268.061V17.8446H278.74V21.707H268.061V27.4344H280.001V31.4242H263.27H263.275Z" fill="#E8EAE5"/>
</svg>
