<svg width="60" height="40" viewBox="0 0 60 40" fill="none" xmlns="http://www.w3.org/2000/svg">
<path fill-rule="evenodd" clip-rule="evenodd" d="M29.5896 0L33.2592 8.40336L47.0513 40H39.712L36.0622 31.6425H23.117L19.4672 39.9949H12.1279L25.92 8.40336L29.5896 0ZM29.5896 16.8118L25.9844 25.0726H33.1949L29.5896 16.8118ZM20.0567 15.6507L22.9785 8.92798H0.693317C0.297136 8.92798 0.148568 9.02984 0.0990452 9.08077C0.0495226 9.08077 0 9.1317 0 9.33541C0 11.2198 4.25894 15.6507 5.64558 15.6507H20.0567ZM53.5341 15.6507C54.9207 15.6507 59.1797 11.2198 59.1797 9.33541C59.1797 9.1317 59.1301 9.08077 59.0806 9.08077C59.0311 9.02984 58.8825 8.92798 58.4863 8.92798H36.2012L39.123 15.6507H53.5341ZM48.2842 23.6466C49.6708 23.6466 53.8803 19.2157 53.8803 17.3313C53.8803 17.1276 53.8307 17.0767 53.7812 17.0767C53.7317 17.0258 53.5831 16.9239 53.187 16.9239H39.7168L42.6386 23.6466H48.2842ZM47.4425 24.9198C47.6902 24.9198 48.0863 24.9708 48.1359 25.1745C48.3835 25.8875 47.0959 28.0775 45.3131 29.7581L43.1836 24.9198H47.4425ZM19.4623 16.9239L16.5405 23.6466H10.8949C9.50825 23.6466 5.29883 19.2157 5.29883 17.3313C5.29883 17.1276 5.34835 17.0767 5.39787 17.0767C5.4474 17.0258 5.59596 16.9239 5.99215 16.9239H19.4623ZM11.0432 25.1745C10.7956 25.8875 12.0832 28.0775 13.866 29.7581L15.9955 24.9198H11.7365C11.4889 24.9198 11.0927 24.9708 11.0432 25.1745Z" fill="#E8EAE5"/>
</svg>
