<svg width="138" height="39" viewBox="0 0 138 39" fill="none" xmlns="http://www.w3.org/2000/svg">
<path fill-rule="evenodd" clip-rule="evenodd" d="M37.529 7.4107C37.529 3.39386 34.3002 0.137968 30.3165 0.137695C26.3327 0.137968 23.103 3.39386 23.103 7.4107C23.0995 9.29802 23.8291 11.1129 25.138 12.4727L23.288 15.2817L17.34 6.0927C17.2362 5.93246 17.0927 5.8018 16.9234 5.71341C16.7542 5.62502 16.565 5.5819 16.3742 5.58824C16.1833 5.59458 15.9974 5.65017 15.8344 5.7496C15.6714 5.84903 15.5369 5.98892 15.444 6.15569L5.09098 24.7177H1.11098C0.497976 24.7177 0.000976562 25.2177 0.000976562 25.8357C0.000976562 26.4537 0.497977 26.9537 1.10998 26.9537H37.906C37.9173 26.9539 37.9286 26.9539 37.94 26.9537H42.552C43.165 26.9537 43.662 26.4537 43.662 25.8357C43.662 25.2177 43.165 24.7177 42.552 24.7177H38.572L32.758 14.2557C34.1596 13.7423 35.3693 12.8101 36.2228 11.5855C37.0764 10.3609 37.5324 8.90337 37.529 7.4107ZM29.395 24.7177L24.607 17.3207L28.572 11.2997L36.029 24.7177H29.395ZM16.48 8.8577L26.747 24.7177H7.63498L16.48 8.8577ZM34.4174 10.5238C35.0899 9.62551 35.4519 8.53284 35.449 7.4107C35.449 4.55169 33.151 2.2347 30.316 2.2347C27.481 2.2347 25.182 4.55169 25.182 7.4107C25.1797 8.59523 25.5835 9.74476 26.326 10.6677L27.728 8.53769C27.8327 8.3788 27.9767 8.24961 28.146 8.16258C28.3152 8.07555 28.5041 8.03364 28.6943 8.04087C28.8844 8.04811 29.0695 8.10426 29.2317 8.2039C29.3939 8.30354 29.5276 8.4433 29.62 8.6097L31.721 12.3907C32.7985 12.0774 33.7449 11.4222 34.4174 10.5238Z" fill="#E8EAE5"/>
<path d="M8.51297 31.4277C8.51297 30.8107 9.00897 30.3107 9.61997 30.3107H34.041C34.652 30.3107 35.148 30.8107 35.148 31.4277C35.148 32.0437 34.652 32.5437 34.04 32.5437H9.61997C9.00897 32.5437 8.51297 32.0447 8.51297 31.4277Z" fill="#E8EAE5"/>
<path d="M17.023 37.0197C17.023 36.4017 17.52 35.9007 18.133 35.9007H25.528C26.141 35.9007 26.638 36.4017 26.638 37.0197C26.638 37.6377 26.141 38.1377 25.529 38.1377H18.133C17.52 38.1377 17.023 37.6367 17.023 37.0197Z" fill="#E8EAE5"/>
<path fill-rule="evenodd" clip-rule="evenodd" d="M120.027 17.0087C119.045 15.7587 117.574 15.0857 115.68 15.0857C112.696 15.0857 109.631 17.6137 109.631 21.8717C109.631 26.1297 112.696 28.6577 115.68 28.6577C117.574 28.6577 119.045 27.9977 120.027 26.7347V27.7927C120.027 30.2377 118.555 31.7217 115.885 31.7217C114.291 31.7217 112.778 31.1987 111.457 30.3887L110.421 32.8207C111.797 33.8097 113.936 34.3457 115.885 34.3457C120.245 34.3457 122.888 31.8047 122.888 27.6687V15.4287H120.027V17.0087ZM112.56 21.8717C112.56 19.6467 114.004 17.7917 116.415 17.7917C118.718 17.7917 120.272 19.5647 120.272 21.8717C120.272 24.1797 118.718 25.9517 116.415 25.9517C114.004 25.9517 112.56 24.0847 112.56 21.8717Z" fill="#E8EAE5"/>
<path fill-rule="evenodd" clip-rule="evenodd" d="M104.341 17.0227C103.442 15.8547 102.093 15.0857 100.24 15.0857C96.59 15.0857 93.714 17.9837 93.714 22.0087C93.714 26.0337 96.589 28.9327 100.24 28.9327C102.094 28.9327 103.442 28.1777 104.341 27.0097V28.5897H107.189V15.4297H104.341V17.0227ZM96.643 22.0087C96.643 19.7017 98.129 17.7917 100.581 17.7917C102.938 17.7917 104.519 19.6047 104.519 22.0087C104.519 24.4127 102.938 26.2267 100.581 26.2267C98.129 26.2267 96.643 24.3167 96.643 22.0087Z" fill="#E8EAE5"/>
<path fill-rule="evenodd" clip-rule="evenodd" d="M138 21.9957C137.987 17.8887 135.48 15.0857 131.828 15.0857C127.986 15.0857 125.329 17.8887 125.329 22.0097C125.329 26.1857 128.095 28.9337 132.005 28.9337C133.981 28.9337 135.779 28.4537 137.373 27.0797L135.956 25.0317C134.88 25.8967 133.49 26.4197 132.182 26.4197C130.329 26.4197 128.681 25.4297 128.299 23.0667H137.946C137.973 22.7377 138 22.3667 138 21.9957ZM128.313 20.8827C128.613 18.9597 129.743 17.6407 131.773 17.6407C133.586 17.6407 134.771 18.8357 135.084 20.8827H128.313Z" fill="#E8EAE5"/>
<path d="M64.3325 23.0935L58.787 9.35675H54.059V28.5898H57.139V12.9148L62.71 26.7078H65.953L71.526 12.7638V28.5898H74.606V9.35675H69.877L64.3325 23.0935Z" fill="#E8EAE5"/>
<path d="M81.204 15.4298V28.5898H78.343V15.4298H81.204Z" fill="#E8EAE5"/>
<path d="M93.386 15.4568C93.386 15.4568 93.3859 15.4567 93.386 15.4568V15.4568Z" fill="#E8EAE5"/>
<path d="M91.192 15.0868C92.0639 15.0868 92.732 15.1958 93.386 15.4568L92.704 18.2988C92.105 17.9828 91.233 17.8178 90.538 17.8178C88.726 17.8178 87.432 19.1098 87.432 21.3478V28.5878H84.584V15.4278H87.404V16.9128C88.262 15.6628 89.598 15.0868 91.192 15.0868Z" fill="#E8EAE5"/>
<path d="M79.759 8.84875C80.89 8.84875 81.776 9.74175 81.776 10.8818C81.776 12.0218 80.89 12.8878 79.759 12.8878C78.629 12.8878 77.769 12.0218 77.769 10.8818C77.769 9.74175 78.629 8.84875 79.759 8.84875Z" fill="#E8EAE5"/>
</svg>
